<svg width="13" height="12" viewBox="0 0 13 12" fill="none" xmlns="http://www.w3.org/2000/svg">
<path d="M6.5 11.8333C5.69306 11.8333 4.93473 11.6801 4.22501 11.3736C3.51528 11.0672 2.89792 10.6517 2.37292 10.127C1.84792 9.60204 1.43239 8.98468 1.12634 8.27496C0.820283 7.56524 0.667061 6.8069 0.666672 5.99996C0.666672 5.19301 0.819894 4.43468 1.12634 3.72496C1.43278 3.01524 1.84831 2.39788 2.37292 1.87288C2.89792 1.34788 3.51528 0.932348 4.22501 0.626293C4.93473 0.320237 5.69306 0.167015 6.5 0.166626C7.30695 0.166626 8.06528 0.319848 8.775 0.626293C9.48473 0.932737 10.1021 1.34826 10.6271 1.87288C11.1521 2.39788 11.5678 3.01524 11.8743 3.72496C12.1807 4.43468 12.3337 5.19301 12.3333 5.99996C12.3333 6.8069 12.1801 7.56524 11.8737 8.27496C11.5672 8.98468 11.1517 9.60204 10.6271 10.127C10.1021 10.652 9.48473 11.0678 8.775 11.3742C8.06528 11.6807 7.30695 11.8337 6.5 11.8333ZM6.5 10.6666C7.80278 10.6666 8.90625 10.2145 9.81042 9.31038C10.7146 8.40621 11.1667 7.30274 11.1667 5.99996C11.1667 5.37774 11.05 4.77982 10.8167 4.20621C10.5833 3.6326 10.2479 3.12704 9.81042 2.68954L6.5 5.99996V1.33329C5.19723 1.33329 4.09375 1.78538 3.18959 2.68954C2.28542 3.59371 1.83334 4.69718 1.83334 5.99996C1.83334 7.30274 2.28542 8.40621 3.18959 9.31038C4.09375 10.2145 5.19723 10.6666 6.5 10.6666Z" fill="white"/>
</svg>
